<svg xmlns="http://www.w3.org/2000/svg" x="0px" y="0px" width="186.34px" height="100.61px" viewBox="0 0 186.34 100.61" preserveAspectRatio="xMidYMid meet" xml:space="preserve"><defs><style>.cls-1{fill:#040015;}.cls-2{fill:#e73425;}</style></defs><g id="Layer_2" data-name="Layer 2"><g id="Layer_1-2" data-name="Layer 1"><path class="cls-1" d="M87.09,31.14l-.2,18a13.17,13.17,0,0,1,8.7-3,18.83,18.83,0,0,1,7.09,1.29,15,15,0,0,1,5.26,3.55,14.08,14.08,0,0,1,3.21,5.45,22.89,22.89,0,0,1,1.07,7V84.65H100.7V65.59a12,12,0,0,0-1.6-6.36c-1.07-1.74-2.83-2.57-5.34-2.57a8.76,8.76,0,0,0-3.51.83A9.94,9.94,0,0,0,87,59.91V84.65H75.45l.19-53.51Z"/><path class="cls-1" d="M58.83,82.4a11.48,11.48,0,0,1-3.81,2,14.43,14.43,0,0,1-4.48.69,16.94,16.94,0,0,1-13.14-5.9A19.51,19.51,0,0,1,33.82,73a22.28,22.28,0,0,1,0-14.83,19.36,19.36,0,0,1,3.58-6.27,17,17,0,0,1,5.68-4.32,17.5,17.5,0,0,1,7.54-1.59,12.61,12.61,0,0,1,4.47.76,13.35,13.35,0,0,1,3.81,2.12V46.55H70.17V84.37H58.9V82.18Zm-6.27-7.56a7.55,7.55,0,0,0,6.27-3.1V59.86a8.82,8.82,0,0,0-2.76-2.27,7.94,7.94,0,0,0-3.66-.83,8.93,8.93,0,0,0-3.58.68,7.78,7.78,0,0,0-2.69,2,8.29,8.29,0,0,0-1.64,2.87,10.39,10.39,0,0,0,0,7,8.77,8.77,0,0,0,1.71,2.88,7.82,7.82,0,0,0,2.69,2,8.79,8.79,0,0,0,3.58.68Z"/><path class="cls-1" d="M135.09,84.86a18.58,18.58,0,0,1-7.62-1.58A19.82,19.82,0,0,1,121.35,79a20.21,20.21,0,0,1-4.1-6.13,18.63,18.63,0,0,1,0-15,20.43,20.43,0,0,1,4.18-6.13,20,20,0,0,1,6.19-4.23,19,19,0,0,1,15.23,0A19.82,19.82,0,0,1,149,51.74a20.51,20.51,0,0,1,4.18,6.12,18.65,18.65,0,0,1,0,15,20.52,20.52,0,0,1-4.1,6.13A19.61,19.61,0,0,1,143,83.13a23.48,23.48,0,0,1-2.34.85,21.16,21.16,0,0,1-5.57.88m6-13.31a9.22,9.22,0,0,0,2.24-6.43,9.26,9.26,0,0,0-2.24-6.43,7.87,7.87,0,0,0-11.49,0,9.21,9.21,0,0,0-2.24,6.43,9.18,9.18,0,0,0,2.24,6.43,7.85,7.85,0,0,0,11.49,0Z"/><path class="cls-1" d="M153.15,89.65a8.59,8.59,0,0,0,4.26-.9c1-.61,1.56-1.82,1.56-3.64V45.9h11.28V86.55a14.24,14.24,0,0,1-1.2,6.13A11.89,11.89,0,0,1,165.69,97a14.82,14.82,0,0,1-5.15,2.57,23.09,23.09,0,0,1-6.72.91h-3.16V89.65Z"/><polygon class="cls-1" points="170.41 33.39 159.09 33.39 158.9 41.16 170.22 41.16 170.41 33.39"/><path class="cls-1" d="M180.54,84.81a5.82,5.82,0,1,1,5.8-5.78,5.8,5.8,0,0,1-5.8,5.78m.07-10.38A4.57,4.57,0,1,0,184.79,79,4.37,4.37,0,0,0,180.61,74.43Zm.67,7.89-.79-2.17h-.21v2.16h-2l.05-6.73,2.42,0a2.39,2.39,0,0,1,2.64,2.25,1.93,1.93,0,0,1-1,1.88l1,2.61Zm-.67-4.86h-.31v1.16h.26c.5,0,.89-.11.89-.6S181.19,77.46,180.61,77.46Z"/><path class="cls-2" d="M50.7,20.5h0A9.79,9.79,0,0,0,37,18.6L24.1,28.33A1.33,1.33,0,0,1,22,26.82l5.18-14.41A9.29,9.29,0,0,0,9.74,6.14L.53,31.75A8.49,8.49,0,0,0,6.37,43a9.21,9.21,0,0,0,4.29.47,9.79,9.79,0,0,0,15.69,7.7L48.8,34.19A9.76,9.76,0,0,0,50.7,20.5"/><polygon class="cls-2" points="52.12 91.66 53.49 91.66 53.49 98.61 51.74 98.61 49.09 93.53 49.09 98.61 47.72 98.61 47.72 91.66 49.47 91.66 52.12 96.74 52.12 91.66"/><path class="cls-2" d="M57,94.69a1.19,1.19,0,0,0-.94.4,1.48,1.48,0,0,0-.37,1,1.32,1.32,0,1,0,2.62,0,1.48,1.48,0,0,0-.37-1,1.2,1.2,0,0,0-.94-.4m0-1.13a2.58,2.58,0,0,1,1.88.72,2.47,2.47,0,0,1,.74,1.86A2.43,2.43,0,0,1,58.86,98a2.83,2.83,0,0,1-3.77,0,2.43,2.43,0,0,1-.75-1.84,2.48,2.48,0,0,1,.75-1.86A2.6,2.6,0,0,1,57,93.56Z"/><polygon class="cls-2" points="63.77 93.66 65.14 93.66 63.27 98.61 61.74 98.61 59.86 93.66 61.23 93.66 62.5 97.32 63.77 93.66"/><path class="cls-2" d="M69.86,91.66l-1.44,1.52h-1l1.13-1.52Zm-3.12,3.88h2.67a1.42,1.42,0,0,0-1.36-.92A1.37,1.37,0,0,0,66.74,95.54Zm3.89,1H66.69a1.38,1.38,0,0,0,1.36,1.1,1.33,1.33,0,0,0,1.23-.79h1.3a2.37,2.37,0,0,1-.92,1.33A2.66,2.66,0,0,1,68,98.7,2.62,2.62,0,0,1,66.15,98a2.43,2.43,0,0,1-.75-1.84,2.48,2.48,0,0,1,.75-1.86,2.83,2.83,0,0,1,3.77,0,2.58,2.58,0,0,1,.75,1.87A1.51,1.51,0,0,1,70.63,96.54Z"/><polygon class="cls-2" points="71.64 97.36 73.03 97.36 72.13 99.91 71.14 99.91 71.64 97.36"/><rect class="cls-2" x="76.82" y="91.66" width="1.28" height="6.95"/><path class="cls-2" d="M80.2,95.54h2.68a1.43,1.43,0,0,0-1.37-.92,1.38,1.38,0,0,0-1.31.92m3.89,1H80.15a1.39,1.39,0,0,0,1.36,1.1,1.34,1.34,0,0,0,1.24-.79H84a2.32,2.32,0,0,1-.92,1.33,2.64,2.64,0,0,1-1.62.52A2.58,2.58,0,0,1,79.62,98a2.4,2.4,0,0,1-.75-1.84,2.44,2.44,0,0,1,.75-1.86,2.63,2.63,0,0,1,4.51,1.87A1.51,1.51,0,0,1,84.09,96.54Z"/><path class="cls-2" d="M88.8,96.14a1.32,1.32,0,1,0-1.3,1.43,1.33,1.33,0,0,0,1.3-1.43m.7-1.86a2.78,2.78,0,0,1,.62,1.86A2.73,2.73,0,0,1,89.5,98a2,2,0,0,1-1.6.72,2,2,0,0,1-1.72-.89v2.8H84.89v-7h1.29v.79a2,2,0,0,1,1.72-.89A2,2,0,0,1,89.5,94.28Z"/><path class="cls-2" d="M92.12,93.18,91,91.66h1l.84.91.84-.91h1L93.5,93.18Zm2.44,3.06a1.22,1.22,0,0,1,.4.92,1.35,1.35,0,0,1-.58,1.11,2.92,2.92,0,0,1-3.08,0,1.38,1.38,0,0,1-.6-1.15H92c0,.4.38.67.89.67s.81-.24.81-.57-.35-.49-1.14-.66l-.15,0c-1-.25-1.56-.72-1.56-1.44A1.32,1.32,0,0,1,91.35,94a2.66,2.66,0,0,1,2.9,0,1.38,1.38,0,0,1,.56,1.13H93.63a.75.75,0,0,0-.83-.66c-.43,0-.74.22-.74.54s.36.5,1.18.67A3.13,3.13,0,0,1,94.56,96.24Z"/><path class="cls-2" d="M95.8,93.66h1.29v5H95.8Zm.64-.65a.73.73,0,1,1,0-1.45.84.84,0,0,1,.57.2A.73.73,0,0,1,96.44,93Z"/><path class="cls-2" d="M99.2,95.54h2.67a1.42,1.42,0,0,0-1.36-.92,1.37,1.37,0,0,0-1.31.92m3.89,1H99.15a1.38,1.38,0,0,0,1.36,1.1,1.33,1.33,0,0,0,1.23-.79H103a2.37,2.37,0,0,1-.92,1.33,2.66,2.66,0,0,1-1.62.52A2.62,2.62,0,0,1,98.61,98a2.43,2.43,0,0,1-.75-1.84,2.48,2.48,0,0,1,.75-1.86,2.83,2.83,0,0,1,3.77,0,2.58,2.58,0,0,1,.75,1.87A1.51,1.51,0,0,1,103.09,96.54Z"/><path class="cls-2" d="M110.49,96.14a1.32,1.32,0,1,0-1.31,1.43,1.34,1.34,0,0,0,1.31-1.43m.69-1.86a2.78,2.78,0,0,1,.62,1.86,2.73,2.73,0,0,1-.62,1.84,2.12,2.12,0,0,1-3.32-.17v2.8h-1.28v-7h1.28v.79a2.12,2.12,0,0,1,3.32-.17Z"/><path class="cls-2" d="M114.93,97.57a1.23,1.23,0,0,0,.95-.41,1.44,1.44,0,0,0,.37-1,1.34,1.34,0,0,0-1.32-1.45,1.33,1.33,0,0,0-1.3,1.45,1.48,1.48,0,0,0,.36,1,1.23,1.23,0,0,0,.94.41m0-5.31-.84.91h-1l1.15-1.52h1.37l1.14,1.52h-1Zm0,1.3a2.6,2.6,0,0,1,1.89.72,2.51,2.51,0,0,1,.74,1.86,2.46,2.46,0,0,1-.74,1.84,2.83,2.83,0,0,1-3.77,0,2.41,2.41,0,0,1-.76-1.84,2.45,2.45,0,0,1,.76-1.86A2.58,2.58,0,0,1,114.94,93.56Z"/><path class="cls-2" d="M119.69,93.18l-1.13-1.52h1l.83.91.85-.91h1l-1.14,1.52Zm.09,4.34h2.89v1.09h-4.56v-1l2.86-2.9h-2.83V93.66h4.51v1Z"/><path class="cls-2" d="M123.5,93.66h1.29v5H123.5Zm.64-.65a.73.73,0,1,1,0-1.45.84.84,0,0,1,.57.2A.73.73,0,0,1,124.14,93Z"/><path class="cls-2" d="M127.51,93.18l-1.14-1.52h1l.84.91.84-.91h1l-1.15,1.52Zm2,3.35h1.3a2.31,2.31,0,0,1-.82,1.56,2.83,2.83,0,0,1-3.64-.11,2.43,2.43,0,0,1-.75-1.84,2.48,2.48,0,0,1,.75-1.86,2.83,2.83,0,0,1,3.64-.11,2.33,2.33,0,0,1,.82,1.57h-1.31a1.27,1.27,0,0,0-1.25-1,1.45,1.45,0,0,0,0,2.88A1.28,1.28,0,0,0,129.47,96.53Z"/><polygon class="cls-2" points="136.13 93.66 134.08 96.02 136.13 98.61 134.61 98.61 132.79 96.24 132.79 98.61 131.51 98.61 131.51 91.66 132.79 91.66 132.79 95.81 134.61 93.66 136.13 93.66"/><polygon class="cls-2" points="140.31 93.66 141.65 93.66 138.46 100.59 137.12 100.59 138.37 98.08 136.24 93.66 137.61 93.66 138.98 96.78 140.31 93.66"/></g></g></svg>