<?xml version="1.0" encoding="utf-8"?>
<!-- Generator: Adobe Illustrator 22.0.1, SVG Export Plug-In . SVG Version: 6.00 Build 0)  -->
<svg version="1.1" id="Layer_1" xmlns="http://www.w3.org/2000/svg" xmlns:xlink="http://www.w3.org/1999/xlink" x="0px" y="0px"
	 viewBox="0 0 22 22" style="enable-background:new 0 0 22 22;" xml:space="preserve">
<style type="text/css">
	.st0{fill:#FFFFFF;}
</style>
<g id="Layer_1_1_">
	<g id="Layer_1_3_">
		<path class="st0" d="M21.9,17.5l-0.1-0.3c-0.3-0.8-1.1-1.6-1.9-1.8L17,14.6c-0.8-0.2-1.9,0.1-2.5,0.6l-1,1c-3.8-1-6.8-4-7.8-7.8
			l1-1C7.3,6.9,7.6,5.8,7.4,5L6.6,2.1c-0.2-0.8-1-1.6-1.8-1.9L4.5,0.1C3.7-0.2,2.6,0.1,2,0.7L0.5,2.2C0.2,2.5,0,3.3,0,3.3
			c-0.1,5,1.9,9.8,5.4,13.3s8.3,5.5,13.2,5.4c0,0,0.8-0.2,1.1-0.5l1.6-1.6C21.9,19.4,22.2,18.3,21.9,17.5z"/>
	</g>
	<g id="Layer_1_2_">
	</g>
</g>
<g id="Layer_1_4_">
</g>
</svg>
